# xmcd CD database file
# Copyright (C) 1997 Ti Kan
#
# Track frame offsets:
#  150
#  43534
#  53493
#  80350
#  96169
#  134650
#  188973
#  225590
#
# Disc length: 3624 seconds
#
# Revision: 1
# Processed by: cddbd v1.4b41PL1 Copyright (c) Steve Scherf et al.
# Submitted via: CDWizzard Release:4.22
#
DISCID=610e2608
DTITLE=Johann Strauss Orchestra of Vienna/Willi Boskovsky - J. Strauss fo
DTITLE=r Dummies
DYEAR=1900
DGENRE=
TTITLE0=On the Beautiful Blue Danube, op.314
TTITLE1=On the Hunt, op.373
TTITLE2=Wine, Women and Song, op.333 
TTITLE3=Pizzicato Polka, op.449
TTITLE4=Artist's Life, op.316e
TTITLE5=Tales from the Vienna Woods, op.325
TTITLE6=Vienna Blood, op.354
TTITLE7=Emperor Waltz, op.437
EXTD=
EXTT0=
EXTT1=
EXTT2=
EXTT3=
EXTT4=
EXTT5=
EXTT6=
EXTT7=
PLAYORDER=
